<svg width="115" height="115" viewBox="0 0 115 115" fill="none" xmlns="http://www.w3.org/2000/svg"><circle cx="78" cy="37" r="37" fill="#4E1A4F"/><circle cx="78" cy="37" r="31" fill="#FFE600"/><circle cx="41" cy="74" r="37" fill="#FFE500"/><path d="M28.244 43.204c-7.015 2.734-15.397 11.207-18.04 18.314-2.733 7.198-2.733 17.766 0 24.964 2.643 7.29 11.025 15.671 18.314 18.314 7.198 2.733 17.766 2.733 24.964 0 7.29-2.643 15.671-11.025 18.314-18.314 2.733-7.198 2.733-17.766 0-24.964-2.643-7.29-11.025-15.671-18.314-18.314-7.106-2.733-18.222-2.642-25.238 0ZM41.73 54.138c.638.638 1.093 2.186 1.093 3.462 0 2.824-1.549 4.556-3.918 4.556-1.002 0-3.37 1.457-5.284 3.188-2.916 2.643-4.282 3.19-7.653 3.19-3.918 0-4.1-.092-4.1-2.734s.182-2.733 3.826-2.733c4.283 0 8.018-2.734 8.018-5.923 0-1.002.456-2.368 1.093-3.006 1.367-1.367 5.558-1.367 6.925 0Zm18.404 14.395v2.734h-13.03l-5.74 5.466-5.648 5.467H21.867v-5.467h13.029l5.74-5.466 5.648-5.467h13.849v2.733Zm0 13.667c0 2.642-.182 2.733-3.826 2.733-4.283 0-8.018 2.734-8.018 5.923 0 2.55-1.64 4.1-4.556 4.1-3.006 0-4.555-1.55-4.555-4.556 0-2.824 1.549-4.556 3.918-4.556 1.002 0 3.37-1.457 5.284-3.188 2.916-2.643 4.282-3.19 7.653-3.19 3.918 0 4.1.092 4.1 2.734ZM76.59 53.636V17.273h2.33v36.363h-2.33Zm7.842-25.454c-.17-1.44-.862-2.557-2.074-3.352-1.212-.796-2.699-1.194-4.46-1.194-1.288 0-2.415.209-3.381.625-.956.417-1.704.99-2.244 1.72a4.12 4.12 0 0 0-.796 2.485c0 .776.185 1.444.554 2.003a4.923 4.923 0 0 0 1.45 1.378c.586.36 1.202.658 1.846.895a22.91 22.91 0 0 0 1.775.553l2.955.796c.757.199 1.6.473 2.528.824.938.35 1.833.828 2.685 1.434a7.307 7.307 0 0 1 2.13 2.302c.56.937.839 2.088.839 3.451 0 1.572-.412 2.993-1.236 4.262-.815 1.269-2.008 2.277-3.58 3.025-1.562.748-3.46 1.122-5.696 1.122-2.083 0-3.887-.336-5.412-1.008-1.515-.672-2.708-1.61-3.58-2.813-.86-1.202-1.349-2.6-1.462-4.19h3.636c.095 1.099.464 2.008 1.108 2.727.654.71 1.477 1.24 2.472 1.591a9.998 9.998 0 0 0 3.238.512c1.345 0 2.552-.218 3.622-.654 1.07-.445 1.918-1.06 2.543-1.846.625-.796.938-1.724.938-2.785 0-.965-.27-1.751-.81-2.358-.54-.606-1.25-1.098-2.13-1.477a22.414 22.414 0 0 0-2.856-.994l-3.58-1.023c-2.272-.653-4.071-1.586-5.397-2.798-1.326-1.212-1.989-2.798-1.989-4.759 0-1.628.44-3.049 1.321-4.261.89-1.222 2.084-2.169 3.58-2.84 1.505-.683 3.186-1.024 5.042-1.024 1.875 0 3.542.337 5 1.009 1.459.663 2.614 1.572 3.466 2.727.862 1.155 1.317 2.467 1.364 3.935h-3.41Z" fill="#4E1A4F"/></svg>
