<svg width="154" height="36" viewBox="0 0 154 36" fill="none" xmlns="http://www.w3.org/2000/svg" class="sm:w-4/5 sm:text-right"><g fill="url(#a)"><path fill-rule="evenodd" clip-rule="evenodd" d="M38.108 24.238c.27.273.625.423 1 .414.375.01.73-.132 1-.414.26-.282.395-.649.385-1.034v-3.028h2.087c2.798 0 4.76-1.758 4.76-4.362 0-2.585-1.904-4.325-4.76-4.325h-3.453a1.34 1.34 0 0 0-1.01.414 1.44 1.44 0 0 0-.394 1.034v10.267c-.01.385.125.761.385 1.034Zm4.491-6.45h-2.106v-3.901h2.106c1.154 0 1.924.77 1.924 1.936a1.892 1.892 0 0 1-.53 1.42 1.822 1.822 0 0 1-1.394.545Zm16.328 5.987c.272.46.786.733 1.338.724.724 0 1.322-.55 1.358-1.25a1.954 1.954 0 0 0-.446-1.157l-2.056-2.811.291-.197a4.058 4.058 0 0 0 1.736-3.404c0-2.567-2.017-4.296-5.043-4.296H52.45a1.46 1.46 0 0 0-1.07.403 1.37 1.37 0 0 0-.423 1.035v10.239c0 .784.655 1.42 1.464 1.42.809 0 1.465-.637 1.465-1.42v-3.028h2.472l2.57 3.742Zm-2.802-6.12h-2.23v-3.883h2.23c1.212 0 2.036.77 2.036 1.927a1.831 1.831 0 0 1-.566 1.42 1.955 1.955 0 0 1-1.47.536Zm7.613.233c0 3.739 3.123 6.66 7.122 6.66 4.018 0 7.16-2.921 7.16-6.66 0-3.739-3.17-6.66-7.16-6.66s-7.122 2.921-7.122 6.66Zm4.156-2.975a3.963 3.963 0 0 1 2.985-1.144 3.982 3.982 0 0 1 4.151 4.119c0 2.426-1.675 4.12-4.151 4.12a3.934 3.934 0 0 1-4.151-4.12 3.956 3.956 0 0 1 1.166-2.975Z"/><path d="M85.69 24.547a1.45 1.45 0 0 1-1.046-.422 1.394 1.394 0 0 1-.41-1.033v-9.333h-3.083c-.708 0-1.28-.571-1.28-1.266 0-.704.572-1.265 1.28-1.265h9.077c.708 0 1.28.57 1.28 1.265s-.572 1.266-1.28 1.266h-3.074v9.323c.01.39-.136.77-.417 1.047-.281.285-.66.428-1.057.418h.01Z"/><path fill-rule="evenodd" clip-rule="evenodd" d="M92.3 17.888c0 3.739 3.124 6.66 7.123 6.66 4.008 0 7.159-2.921 7.159-6.66 0-3.739-3.17-6.66-7.16-6.66-3.989 0-7.121 2.921-7.121 6.66Zm4.157-2.975a3.963 3.963 0 0 1 2.985-1.144 3.98 3.98 0 0 1 4.151 4.119c0 2.426-1.676 4.12-4.151 4.12a3.934 3.934 0 0 1-4.152-4.12 3.956 3.956 0 0 1 1.167-2.975Z"/><path d="M110.918 24.645a1.365 1.365 0 0 1-1.416-1.448V12.84a1.37 1.37 0 0 1 .397-1.042 1.38 1.38 0 0 1 1.038-.416h6.032a1.26 1.26 0 0 1 1.251 1.259 1.22 1.22 0 0 1-.356.885 1.275 1.275 0 0 1-.895.374h-4.626v3.313h3.54c.698 0 1.26.569 1.26 1.27.005.329-.125.647-.362.882a1.276 1.276 0 0 1-.898.367h-3.54v3.455c.019.379-.126.758-.398 1.042-.271.274-.64.416-1.027.407v.01Zm12.592 0a1.417 1.417 0 0 1-1.028-.398 1.338 1.338 0 0 1-.4-1.023V12.858a1.42 1.42 0 0 1 .695-1.269 1.444 1.444 0 0 1 1.466 0c.447.266.714.758.695 1.27v10.365c.019.38-.124.758-.39 1.023a1.412 1.412 0 0 1-1.038.407v-.01Z"/><path fill-rule="evenodd" clip-rule="evenodd" d="M136.84 23.868c.258.464.774.739 1.31.73a1.333 1.333 0 0 0 1.329-1.26 1.989 1.989 0 0 0-.44-1.164l-2.027-2.83.277-.21a4.113 4.113 0 0 0 1.721-3.417c0-2.584-1.988-4.326-4.972-4.326h-3.604a1.423 1.423 0 0 0-1.056.406 1.394 1.394 0 0 0-.417 1.042v10.31c-.029.527.24 1.027.698 1.297a1.446 1.446 0 0 0 1.502.02c.465-.273.735-.783.697-1.317V20.1h2.439l2.543 3.768Zm-2.783-6.163h-2.199v-3.91h2.199c1.205 0 2.008.777 2.008 1.941a1.87 1.87 0 0 1-.561 1.427 1.916 1.916 0 0 1-1.447.542Z"/><path d="M143.731 24.645a1.503 1.503 0 0 1-1.095-.42 1.43 1.43 0 0 1-.437-1.067v-10.28c-.02-.402.136-.793.428-1.077a1.473 1.473 0 0 1 1.104-.41h6.585c.727 0 1.318.568 1.318 1.278 0 .71-.591 1.287-1.318 1.287h-5.121v2.651h3.394c.67 0 1.203.511 1.203 1.155s-.533 1.165-1.203 1.165h-3.394v3.152h5.382c.728 0 1.319.568 1.319 1.278 0 .71-.591 1.278-1.319 1.278l-6.846.01ZM2.502 35.577A4.23 4.23 0 0 1 .09 32.021a4.215 4.215 0 0 1 1.965-3.815 4.331 4.331 0 0 1 4.331-.169c2.057 1.086 2.857 3.597 1.8 5.65-1.058 2.053-3.585 2.893-5.684 1.89ZM1.523 6.851c-2.77 5.07-1.669 11.344 2.669 15.205a1.262 1.262 0 0 0 1.695-.01 6.092 6.092 0 0 0 1.494-6.815 6.093 6.093 0 0 1 1.59-7.062 6.899 6.899 0 0 1 7.514-1.014c2.46 1.147 3.906 3.708 3.594 6.37-.364 2.666-2.386 4.822-5.058 5.393-2.542.592-4.477 2.623-4.914 5.157-.096.616.337 1.194.993 1.308 6.6 1.137 13.073-2.521 15.183-8.57 2.12-6.066-.77-12.673-6.773-15.516C13.036-1.756 4.856.775 1.523 6.85Z"/></g><defs><linearGradient id="a" x1="19.463" y1="29.658" x2="30.479" y2="6.586" gradientUnits="userSpaceOnUse"><stop offset="0%" stop-color="#F54703"/><stop offset="100%" stop-color="#FAC902"/></linearGradient></defs></svg>
